<!-- Forever UwU logo: pink cat-ear UwU in a WoW: Forever style medallion. Text uses fonts/MochiyPopOne-Regular.ttf. -->
<svg viewBox="0 0 512 512" width="512" height="512" xmlns="http://www.w3.org/2000/svg"><defs>
<style>@font-face { font-family: "Mochiy"; src: url("../fonts/MochiyPopOne-Regular.ttf"); }</style>
 <radialGradient id="bg" cx="50%" cy="40%" r="70%"><stop offset="0" stop-color="#3a2a3a"></stop><stop offset="1" stop-color="#15121a"></stop></radialGradient>
 <radialGradient id="face" cx="45%" cy="38%" r="65%"><stop offset="0" stop-color="#fff1f6"></stop><stop offset=".7" stop-color="#ffd3e4"></stop><stop offset="1" stop-color="#f3a6c6"></stop></radialGradient>
 <radialGradient id="ivory" cx="45%" cy="38%" r="65%"><stop offset="0" stop-color="#fffaf0"></stop><stop offset=".7" stop-color="#f3e6c8"></stop><stop offset="1" stop-color="#d9c49a"></stop></radialGradient>
 <linearGradient id="gold" x1="0" y1="0" x2="0" y2="1"><stop offset="0" stop-color="#fff0a8"></stop><stop offset=".55" stop-color="#ffc93c"></stop><stop offset="1" stop-color="#e08a10"></stop></linearGradient>
 <linearGradient id="pink" x1="0" y1="0" x2="0" y2="1"><stop offset="0" stop-color="#ffb3dc"></stop><stop offset="1" stop-color="#ff5fae"></stop></linearGradient>
 <linearGradient id="cream" x1="0" y1="0" x2="0" y2="1"><stop offset="0" stop-color="#fffaf0"></stop><stop offset="1" stop-color="#e6d3a8"></stop></linearGradient>
 <radialGradient id="teal" cx="50%" cy="42%" r="60%"><stop offset="0" stop-color="#3fb8d8"></stop><stop offset=".6" stop-color="#1a7fa3"></stop><stop offset="1" stop-color="#0b4f66"></stop></radialGradient>
 <linearGradient id="bronze" x1="0" y1="0" x2="1" y2="1"><stop offset="0" stop-color="#e8c48a"></stop><stop offset=".5" stop-color="#9a6a3a"></stop><stop offset="1" stop-color="#d9a35a"></stop></linearGradient>
 <radialGradient id="glow" r="50%"><stop offset="0" stop-color="#ff7cc2" stop-opacity=".35"></stop><stop offset="1" stop-color="#ff7cc2" stop-opacity="0"></stop></radialGradient>
 <radialGradient id="tealglow" r="50%"><stop offset="0" stop-color="#3fb8d8" stop-opacity=".3"></stop><stop offset="1" stop-color="#3fb8d8" stop-opacity="0"></stop></radialGradient>
</defs><rect width="512" height="512" rx="72" fill="#0a1e26"></rect><rect x="10" y="10" width="492" height="492" rx="64" fill="none" stroke="#c9a45c" stroke-opacity=".55" stroke-width="4"></rect><path transform="rotate(0 256 262)" d="M230 80 L256 38 L282 80 Z" fill="url(#bronze)" stroke="#2a1708" stroke-width="5" stroke-linejoin="round"></path><path transform="rotate(90 256 262)" d="M230 80 L256 38 L282 80 Z" fill="url(#bronze)" stroke="#2a1708" stroke-width="5" stroke-linejoin="round"></path><path transform="rotate(180 256 262)" d="M230 80 L256 38 L282 80 Z" fill="url(#bronze)" stroke="#2a1708" stroke-width="5" stroke-linejoin="round"></path><path transform="rotate(270 256 262)" d="M230 80 L256 38 L282 80 Z" fill="url(#bronze)" stroke="#2a1708" stroke-width="5" stroke-linejoin="round"></path><circle cx="256" cy="262" r="190" fill="url(#bronze)" stroke="#2a1708" stroke-width="5"></circle>
  <circle cx="256" cy="262" r="174" fill="#6b4a2a"></circle><circle cx="256" cy="262" r="168" fill="url(#teal)"></circle>
  <circle cx="256" cy="262" r="168" fill="none" stroke="#000" stroke-opacity=".35" stroke-width="22"></circle><g transform="translate(256 268) scale(0.82) translate(-256 -262)"><g transform="translate(256 236) scale(0.62) translate(-256 -220)"><g stroke="#3a0820" stroke-width="14.516129032258064" stroke-linejoin="round"><path d="M120 220 L136 86 L232 160 Z" fill="#ffd3e4"></path><path d="M392 220 L376 86 L280 160 Z" fill="#ffd3e4"></path></g>
  <path d="M142 200 L150 122 L210 166 Z" fill="#ff8fc8"></path><path d="M370 200 L362 122 L302 166 Z" fill="#ff8fc8"></path></g><text x="256" y="322" text-anchor="middle" font-family="Mochiy" font-size="124" letter-spacing="-4" fill="url(#pink)" stroke="#3a0820" stroke-width="16" stroke-linejoin="round" paint-order="stroke">UwU</text><ellipse cx="148" cy="352" rx="26" ry="11" fill="#ff6fb8" opacity=".85"></ellipse><ellipse cx="364" cy="352" rx="26" ry="11" fill="#ff6fb8" opacity=".85"></ellipse>
   <path transform="translate(372 168) scale(1.5) rotate(14)" d="M0 8 C-14 -4 -8 -16 0 -8 C8 -16 14 -4 0 8 Z" fill="#ff5fae" stroke="#3a0820" stroke-width="3.6666666666666665" stroke-linejoin="round"></path><path transform="translate(146 382) scale(0.6)" d="M0 -22 L5 -5 L22 0 L5 5 L0 22 L-5 5 L-22 0 L-5 -5 Z" fill="#fff" stroke="#3a0820" stroke-width="5" stroke-linejoin="round"></path></g></svg>
